<mxfile host="65bd71144e">
    <diagram id="08hDk1jc7VH57m9aIlY8" name="第 1 页">
        <mxGraphModel dx="1614" dy="800" grid="0" gridSize="10" guides="1" tooltips="1" connect="1" arrows="1" fold="1" page="1" pageScale="1" pageWidth="827" pageHeight="1169" math="0" shadow="0">
            <root>
                <mxCell id="0"/>
                <mxCell id="30" value="未命名图层" parent="0"/>
                <mxCell id="1" parent="0"/>
                <mxCell id="2" value="&lt;font style=&quot;font-size: 18px&quot; color=&quot;#1a1a1a&quot;&gt;Func&lt;br&gt;构造函数&lt;/font&gt;" style="rounded=1;whiteSpace=wrap;html=1;fillColor=#E6E6E6;" vertex="1" parent="1">
                    <mxGeometry x="80" y="120" width="160" height="80" as="geometry"/>
                </mxCell>
                <mxCell id="10" value="&lt;font style=&quot;font-size: 18px&quot; color=&quot;#1a1a1a&quot;&gt;Func.prototype&lt;br&gt;实例原型&lt;br&gt;&lt;/font&gt;" style="rounded=1;whiteSpace=wrap;html=1;fillColor=#E6E6E6;" vertex="1" parent="1">
                    <mxGeometry x="600" y="120" width="160" height="80" as="geometry"/>
                </mxCell>
                <mxCell id="11" value="&lt;font style=&quot;font-size: 18px&quot; color=&quot;#1a1a1a&quot;&gt;Object.prototype&lt;br&gt;&lt;/font&gt;" style="rounded=1;whiteSpace=wrap;html=1;fillColor=#E6E6E6;" vertex="1" parent="1">
                    <mxGeometry x="600" y="440" width="160" height="80" as="geometry"/>
                </mxCell>
                <mxCell id="12" value="&lt;font style=&quot;font-size: 18px&quot; color=&quot;#1a1a1a&quot;&gt;func&lt;br&gt;实例对象&lt;br&gt;&lt;/font&gt;" style="rounded=1;whiteSpace=wrap;html=1;fillColor=#E6E6E6;" vertex="1" parent="1">
                    <mxGeometry x="80" y="280" width="160" height="80" as="geometry"/>
                </mxCell>
                <mxCell id="13" value="&lt;font style=&quot;font-size: 18px&quot; color=&quot;#1a1a1a&quot;&gt;Object&lt;br&gt;构造函数&lt;br&gt;&lt;/font&gt;" style="rounded=1;whiteSpace=wrap;html=1;fillColor=#E6E6E6;" vertex="1" parent="1">
                    <mxGeometry x="80" y="440" width="160" height="80" as="geometry"/>
                </mxCell>
                <mxCell id="14" value="&lt;font style=&quot;font-size: 18px&quot; color=&quot;#1a1a1a&quot;&gt;NULL&lt;br&gt;&lt;/font&gt;" style="rounded=1;whiteSpace=wrap;html=1;fillColor=#E6E6E6;" vertex="1" parent="1">
                    <mxGeometry x="600" y="600" width="160" height="80" as="geometry"/>
                </mxCell>
                <mxCell id="16" value="" style="endArrow=classic;html=1;fontFamily=Helvetica;fontSize=18;fontColor=#1A1A1A;exitX=1.013;exitY=0.888;exitDx=0;exitDy=0;entryX=0;entryY=0.888;entryDx=0;entryDy=0;exitPerimeter=0;entryPerimeter=0;" edge="1" parent="1" source="2" target="10">
                    <mxGeometry width="50" height="50" relative="1" as="geometry">
                        <mxPoint x="330" y="210" as="sourcePoint"/>
                        <mxPoint x="380" y="160" as="targetPoint"/>
                        <Array as="points"/>
                    </mxGeometry>
                </mxCell>
                <mxCell id="17" value="" style="endArrow=classic;html=1;fontFamily=Helvetica;fontSize=18;fontColor=#1A1A1A;entryX=1;entryY=0.125;entryDx=0;entryDy=0;entryPerimeter=0;exitX=-0.012;exitY=0.125;exitDx=0;exitDy=0;exitPerimeter=0;" edge="1" parent="1" source="10" target="2">
                    <mxGeometry width="50" height="50" relative="1" as="geometry">
                        <mxPoint x="389" y="150" as="sourcePoint"/>
                        <mxPoint x="439" y="100" as="targetPoint"/>
                    </mxGeometry>
                </mxCell>
                <mxCell id="18" value="&lt;span style=&quot;background-color: rgb(230 , 230 , 230)&quot;&gt;constructor&lt;/span&gt;" style="text;html=1;resizable=0;autosize=1;align=center;verticalAlign=middle;points=[];fillColor=none;strokeColor=none;rounded=0;fontFamily=Helvetica;fontSize=18;fontColor=#1A1A1A;" vertex="1" parent="1">
                    <mxGeometry x="350" y="90" width="100" height="30" as="geometry"/>
                </mxCell>
                <mxCell id="19" value="&lt;span style=&quot;background-color: rgb(230 , 230 , 230)&quot;&gt;prototype&lt;/span&gt;" style="text;html=1;resizable=0;autosize=1;align=center;verticalAlign=middle;points=[];fillColor=none;strokeColor=none;rounded=0;fontFamily=Helvetica;fontSize=18;fontColor=#1A1A1A;" vertex="1" parent="1">
                    <mxGeometry x="355" y="200" width="90" height="30" as="geometry"/>
                </mxCell>
                <mxCell id="20" value="" style="endArrow=classic;html=1;fontFamily=Helvetica;fontSize=18;fontColor=#1A1A1A;exitX=1;exitY=0.5;exitDx=0;exitDy=0;entryX=0;entryY=1;entryDx=0;entryDy=0;" edge="1" parent="1" source="12" target="10">
                    <mxGeometry width="50" height="50" relative="1" as="geometry">
                        <mxPoint x="430" y="340" as="sourcePoint"/>
                        <mxPoint x="480" y="290" as="targetPoint"/>
                    </mxGeometry>
                </mxCell>
                <mxCell id="21" value="&lt;span style=&quot;background-color: rgb(230 , 230 , 230)&quot;&gt;__proto__&lt;/span&gt;" style="text;html=1;resizable=0;autosize=1;align=center;verticalAlign=middle;points=[];fillColor=none;strokeColor=none;rounded=0;fontFamily=Helvetica;fontSize=18;fontColor=#1A1A1A;" vertex="1" parent="1">
                    <mxGeometry x="350" y="280" width="100" height="30" as="geometry"/>
                </mxCell>
                <mxCell id="22" value="" style="endArrow=classic;html=1;fontFamily=Helvetica;fontSize=18;fontColor=#1A1A1A;entryX=0.5;entryY=0;entryDx=0;entryDy=0;exitX=0.5;exitY=1;exitDx=0;exitDy=0;" edge="1" parent="1" source="10" target="11">
                    <mxGeometry width="50" height="50" relative="1" as="geometry">
                        <mxPoint x="430" y="340" as="sourcePoint"/>
                        <mxPoint x="480" y="290" as="targetPoint"/>
                    </mxGeometry>
                </mxCell>
                <mxCell id="23" value="&lt;span style=&quot;background-color: rgb(230 , 230 , 230)&quot;&gt;__proto__&lt;/span&gt;" style="text;html=1;resizable=0;autosize=1;align=center;verticalAlign=middle;points=[];fillColor=none;strokeColor=none;rounded=0;fontFamily=Helvetica;fontSize=18;fontColor=#1A1A1A;" vertex="1" parent="1">
                    <mxGeometry x="580" y="305" width="100" height="30" as="geometry"/>
                </mxCell>
                <mxCell id="24" value="" style="endArrow=classic;html=1;fontFamily=Helvetica;fontSize=18;fontColor=#1A1A1A;exitX=1.013;exitY=0.888;exitDx=0;exitDy=0;entryX=0;entryY=0.888;entryDx=0;entryDy=0;exitPerimeter=0;entryPerimeter=0;" edge="1" parent="1">
                    <mxGeometry width="50" height="50" relative="1" as="geometry">
                        <mxPoint x="242.07999999999993" y="511.03999999999996" as="sourcePoint"/>
                        <mxPoint x="600" y="511.03999999999996" as="targetPoint"/>
                        <Array as="points"/>
                    </mxGeometry>
                </mxCell>
                <mxCell id="25" value="" style="endArrow=classic;html=1;fontFamily=Helvetica;fontSize=18;fontColor=#1A1A1A;entryX=1;entryY=0.125;entryDx=0;entryDy=0;entryPerimeter=0;exitX=-0.012;exitY=0.125;exitDx=0;exitDy=0;exitPerimeter=0;" edge="1" parent="1">
                    <mxGeometry width="50" height="50" relative="1" as="geometry">
                        <mxPoint x="598.0799999999999" y="450" as="sourcePoint"/>
                        <mxPoint x="240" y="450" as="targetPoint"/>
                    </mxGeometry>
                </mxCell>
                <mxCell id="26" value="&lt;span style=&quot;background-color: rgb(230 , 230 , 230)&quot;&gt;constructor&lt;/span&gt;" style="text;html=1;resizable=0;autosize=1;align=center;verticalAlign=middle;points=[];fillColor=none;strokeColor=none;rounded=0;fontFamily=Helvetica;fontSize=18;fontColor=#1A1A1A;" vertex="1" parent="1">
                    <mxGeometry x="350" y="410" width="100" height="30" as="geometry"/>
                </mxCell>
                <mxCell id="27" value="&lt;span style=&quot;background-color: rgb(230 , 230 , 230)&quot;&gt;prototype&lt;/span&gt;" style="text;html=1;resizable=0;autosize=1;align=center;verticalAlign=middle;points=[];fillColor=none;strokeColor=none;rounded=0;fontFamily=Helvetica;fontSize=18;fontColor=#1A1A1A;" vertex="1" parent="1">
                    <mxGeometry x="355" y="520" width="90" height="30" as="geometry"/>
                </mxCell>
                <mxCell id="28" value="&lt;span style=&quot;background-color: rgb(230 , 230 , 230)&quot;&gt;__proto__&lt;/span&gt;" style="text;html=1;resizable=0;autosize=1;align=center;verticalAlign=middle;points=[];fillColor=none;strokeColor=none;rounded=0;fontFamily=Helvetica;fontSize=18;fontColor=#1A1A1A;" vertex="1" parent="1">
                    <mxGeometry x="580" y="550" width="100" height="30" as="geometry"/>
                </mxCell>
                <mxCell id="29" value="" style="endArrow=classic;html=1;fontFamily=Helvetica;fontSize=18;fontColor=#1A1A1A;entryX=0.5;entryY=0;entryDx=0;entryDy=0;exitX=0.5;exitY=1;exitDx=0;exitDy=0;" edge="1" parent="1" source="11">
                    <mxGeometry width="50" height="50" relative="1" as="geometry">
                        <mxPoint x="430" y="380" as="sourcePoint"/>
                        <mxPoint x="680" y="600" as="targetPoint"/>
                    </mxGeometry>
                </mxCell>
            </root>
        </mxGraphModel>
    </diagram>
</mxfile>